<?xml version="1.0" encoding="UTF-8"?>
<svg width="266.977" height="260.244" xmlns="http://www.w3.org/2000/svg">
 <title>Baseball w/red laces</title>
 <g>
  <title>Layer 1</title>
  <g externalResourcesRequired="false" id="Layer_1">
   <g externalResourcesRequired="false" id="svg_1">
    <path id="svg_2" fill-rule="evenodd" d="m0,130.141006c0,71.820007 59.796001,130.103989 133.488007,130.103989c73.72699,0 133.489014,-58.28299 133.489014,-130.103989c-0.000031,-71.857006 -59.762024,-130.141006 -133.489014,-130.141006c-73.692005,0 -133.488007,58.284 -133.488007,130.141006z" clip-rule="evenodd"/>
    <path id="svg_3" fill-rule="evenodd" fill="#FFFFFF" d="m2.952,131.507996c0,71.855011 57.527999,126.106995 131.219997,126.106995c73.729004,0 130.608002,-54.57399 130.608002,-126.431992c0,-71.819 -57.526993,-128.626999 -131.218994,-128.626999c-73.729004,0 -130.609004,57.096 -130.609004,128.951996z" clip-rule="evenodd"/>
    <path fill="#ff0000" id="svg_4" fill-rule="evenodd" d="m68.183998,68.975998c-0.360001,-0.18 -1.764,-0.251999 -2.951996,-0.503998c-1.260002,-0.396004 -2.664001,-0.972 -4.068001,-1.440002c-1.368,-0.540001 -2.700001,-1.043999 -3.996002,-1.223999c-1.403999,-0.215996 -2.771999,0.324005 -3.959999,0.108002c-1.296001,-0.323997 -2.124001,-1.584 -3.456001,-1.835999c-1.475998,-0.360001 -3.455997,-0.144001 -4.823997,-0.18c-1.440002,-0.252003 -2.628002,-0.720001 -3.564003,-0.720001c-1.043999,-0.108002 -1.439999,0.683998 -2.556,0.720001c-1.223999,-0.036003 -3.348,-0.468002 -4.571999,-0.324001c-1.296001,0.144001 -1.944,0.504002 -3.059999,0.936001c-1.296001,0.360001 -3.6,0.648003 -3.996,1.007996c-0.360001,0.18 0.935999,0.216003 1.944,0.108002c0.864,-0.143997 2.303999,-1.152 3.492001,-1.223999c1.115997,-0.215996 1.944,0 3.455997,0.108002c1.332001,-0.036003 3.888,-0.036003 4.896,0c0.864002,-0.18 0.324001,-0.468002 0.900002,-0.431999c0.576,0 1.296001,0.143997 2.556,0.431999c1.152,0.108002 3.060001,-0.036003 4.608002,0.395996c1.439999,0.396004 2.987999,1.548004 4.355999,1.944c1.295998,0.18 2.088001,-0.395996 3.492001,-0.215996c1.259998,0.143997 2.879997,1.043999 4.175999,1.439995c1.188,0.216003 2.195999,0.504005 3.167999,0.720001c0.936005,0.18 1.835999,0.720001 2.556,0.792c0.720001,0.036003 1.512001,-0.540001 1.403999,-0.612z" clip-rule="evenodd"/>
    <path fill="#ff0000" id="svg_5" fill-rule="evenodd" d="m20.448,70.704002c-0.035999,-0.251999 -1.907999,1.655998 -2.844,2.663994c-0.9,0.756004 -1.403999,1.728004 -2.34,2.772003c-1.008,1.152 -2.52,2.844002 -3.276,3.959999c-0.828,1.008003 -2.016,2.267998 -1.62,2.124001c0.252,-0.323997 2.232,-2.375999 3.456,-3.636002c1.08,-1.332001 2.124,-2.447998 3.276,-3.779999c1.08,-1.403999 3.167999,-3.888 3.348,-4.103996z" clip-rule="evenodd"/>
    <path fill="#ff0000" id="svg_6" fill-rule="evenodd" d="m63.720001,69.192001c-1.152,1.979996 -5.616001,7.776001 -7.271999,10.584c-1.620003,2.664001 -2.592003,5.075996 -3.060001,5.435997c-0.612,0.144005 -0.647999,-2.771996 -0.792,-3.888c-0.324001,-1.187996 -1.584,-1.079994 -0.720001,-2.736c0.827999,-1.764 3.672001,-5.399994 5.616001,-7.163994c1.871998,-1.872002 4.355999,-3.204002 5.507999,-3.564003c0.972,-0.431999 1.764,-0.683998 0.720001,1.332001z" clip-rule="evenodd"/>
    <path fill="#ff0000" id="svg_7" fill-rule="evenodd" d="m43.812,82.332001c0.936001,-0.935997 3.276001,-6.335999 4.787998,-8.568001c1.404003,-2.267998 2.556,-3.204002 3.600002,-4.463997c0.972,-1.296005 3.059998,-3.096001 2.52,-3.060005c-0.756001,-0.107994 -4.068001,1.440002 -5.903999,2.844002c-1.800003,1.368004 -3.600002,3.599998 -4.572002,5.292c-0.899998,1.548004 -1.439999,2.772003 -1.332001,4.211998c-0.143997,1.332001 -0.071999,4.428001 0.900002,3.744003z" clip-rule="evenodd"/>
    <path fill="#ff0000" id="svg_8" fill-rule="evenodd" d="m36.900002,80.316002c0.899998,-1.260002 2.231998,-6.408005 3.851997,-9.071999c1.440002,-2.736 4.32,-5.760002 4.896,-6.840004c0.468002,-1.152 -0.827999,-0.288002 -1.944,0.503998c-1.188,0.828003 -3.851997,2.628006 -5.076,4.284004c-1.403999,1.619995 -2.411999,3.456001 -2.879997,5.075996c-0.540001,1.476006 0,2.664001 0.216,3.708c0.071999,0.972 0.107998,3.420006 0.936001,2.340004z" clip-rule="evenodd"/>
    <path fill="#ff0000" id="svg_9" fill-rule="evenodd" d="m30.24,79.596001c0.9,-0.612 2.772001,-5.760002 4.104002,-7.956001c1.151997,-2.195999 2.483997,-3.851997 3.167999,-5.112c0.683998,-1.295998 1.043999,-2.087997 0.792,-2.232002c-0.396,-0.251999 -1.836002,0.360001 -2.952,1.440002c-1.296001,1.043999 -3.060001,3.779999 -4.176001,5.292c-1.116001,1.368004 -2.016001,2.267998 -2.16,3.671997c-0.216002,1.440002 0.323999,5.292 1.223999,4.896004z" clip-rule="evenodd"/>
    <path fill="#ff0000" id="svg_10" fill-rule="evenodd" d="m25.164,79.776001c0.396,-0.683998 0.576,-3.816002 1.116001,-5.508003c0.396,-1.835999 1.08,-3.059998 2.052,-4.787994c1.007999,-1.764 3.636,-5.040001 3.851997,-5.508003c0.108002,-0.612 -2.015999,1.260002 -3.059998,2.267998c-1.26,0.900002 -2.628,2.052002 -3.672001,3.456001c-1.08,1.440002 -1.872,2.987999 -2.232,4.5c-0.323999,1.295998 -0.251999,2.447998 0.216002,3.456001c0.287998,0.900002 1.188,2.627998 1.727999,2.124001z" clip-rule="evenodd"/>
    <path fill="#ff0000" id="svg_11" fill-rule="evenodd" d="m25.164,67.356003c-0.216,0.612 -2.052,1.907997 -2.879999,3.888c-0.864,1.764 -1.404001,4.715996 -1.908001,6.623993c-0.504,1.692001 -0.684,3.780006 -0.935999,4.176003c-0.396,0.396004 -0.576,-0.863998 -0.828001,-1.835999c-0.288,-1.223999 -0.827999,-2.736 -0.504,-4.391998c0.288,-1.620003 1.691999,-3.924004 2.556,-5.112c0.756001,-1.296005 1.584,-2.088005 2.34,-2.520004c0.792,-0.683998 2.16,-1.332001 2.16,-0.827995z" clip-rule="evenodd"/>
    <path fill="#ff0000" id="svg_12" fill-rule="evenodd" d="m14.76,87.552002c-0.324,-0.900002 -1.728001,-3.708 -1.440001,-5.508003c0.216001,-1.979996 1.728001,-4.788002 2.448,-5.507996c0.504,-0.684006 1.152,-0.036003 1.116001,1.115997c-0.144001,1.008003 -1.476001,3.239998 -1.620001,4.895996c-0.18,1.512001 0.288,3.492004 0.288,4.392006c-0.108,0.792 -0.504,1.367996 -0.792,0.612z" clip-rule="evenodd"/>
    <path id="svg_13" fill-rule="evenodd" d="m10.26,92.124001c0.036,-0.900002 -0.936,-2.952003 -0.828,-4.788002c0.072,-1.979996 1.476,-5.327995 1.44,-6.012001c-0.252,-0.647995 -1.62,1.332001 -2.16,2.340004c-0.576,0.827995 -1.008,1.655998 -1.008,3.059998c-0.036,1.403999 0.36,4.031998 0.9,5.112c0.432,0.936005 1.404,0.936005 1.656,0.288002z" clip-rule="evenodd"/>
    <path fill="#ff0000" id="svg_14" fill-rule="evenodd" d="m38.304001,63.900002c-0.792,-0.360001 -1.188,-1.332001 -1.332001,-2.772003c-0.288002,-1.655998 -0.936001,-3.528 0,-6.011997c0.936001,-2.556 4.32,-7.308002 5.436001,-8.280003c1.043999,-0.863998 0.936001,1.152 0.792,2.988003c-0.324001,1.691998 -1.944,5.183998 -2.232002,7.416c-0.396,2.16 0.972,4.355999 0.504002,5.615997c-0.467999,1.044003 -2.448002,1.259998 -3.167999,1.044003z" clip-rule="evenodd"/>
    <path fill="#ff0000" id="svg_15" fill-rule="evenodd" d="m46.584,64.512001c-0.467999,-1.044003 -0.792,-4.788002 -0.827999,-6.66c-0.144001,-2.016003 -0.144001,-3.204002 0.396,-4.68c0.467999,-1.584 1.439999,-3.024002 2.771999,-4.176003c1.368,-1.188 4.788002,-3.059998 5.112,-2.556c0.144001,0.576 -3.132,3.312 -3.995998,5.724003c-0.900002,2.303997 -1.440002,6.011997 -1.620003,8.063999c-0.396,1.944 -0.035999,2.843998 -0.323997,3.672001c-0.431999,0.683998 -1.080002,1.584 -1.512001,0.612z" clip-rule="evenodd"/>
    <path fill="#ff0000" id="svg_16" fill-rule="evenodd" d="m54.108002,66.024002c-0.504002,-1.512001 -0.648003,-5.832001 -0.288002,-8.244003c0.216,-2.411999 0.827999,-4.175999 1.835999,-5.831997c0.828003,-1.764004 3.168003,-4.392002 3.672001,-4.284c0.431999,0.071999 -0.503998,1.944 -0.719997,4.787998c-0.324001,2.771999 -0.432003,9.576 -0.720001,11.952c-0.288002,2.267998 -0.612,1.403999 -1.116001,1.729004c-0.756001,0.250999 -2.16,1.186996 -2.663998,-0.109001z" clip-rule="evenodd"/>
    <path fill="#ff0000" id="svg_17" fill-rule="evenodd" d="m63.287998,68.363998c-0.755997,-1.475998 -0.755997,-4.716 -0.396,-7.632c0.288002,-3.023998 1.260002,-7.991997 2.232002,-9.612c1.008003,-1.584 2.879997,-1.259998 3.384003,0c0.287994,1.080002 -1.044006,4.248001 -1.224007,6.732002c-0.287994,2.411999 0.144005,6.084 0.18,7.955997c0.072006,1.800003 0.576004,2.520004 0,2.987999c-0.827995,0.360001 -3.383995,0.864006 -4.175999,-0.431999z" clip-rule="evenodd"/>
    <path fill="#ff0000" id="svg_18" fill-rule="evenodd" d="m34.236,63.972c0.216,-0.431999 -0.324001,-0.827999 -0.216,-2.736c0.216,-2.088001 1.223999,-7.236 1.223999,-8.784c-0.287998,-1.512001 -1.548,-1.332001 -2.231998,-0.287998c-0.684002,0.935997 -1.332001,4.175999 -1.548,6.119999c-0.288,1.764 -0.18,4.104 0.323999,5.076c0.468,0.792 1.980001,1.043999 2.448,0.612z" clip-rule="evenodd"/>
    <path fill="#ff0000" id="svg_19" fill-rule="evenodd" d="m27.719999,65.304001c0.324001,-0.792 -0.755999,-1.692001 -0.612,-3.240002c0.072001,-1.655998 0.936001,-5.579998 0.792,-6.228001c-0.396,-0.647999 -1.944,0.900002 -2.556,2.124001c-0.612,1.080002 -1.08,3.167999 -1.007999,4.608002c-0.036001,1.368 0.323999,3.348 0.935999,3.851997c0.468,0.324005 2.16,-0.323997 2.448,-1.115997z" clip-rule="evenodd"/>
    <path fill="#ff0000" id="svg_20" fill-rule="evenodd" d="m22.284,68.472c0.216,-1.008003 -0.576,-2.592003 -0.576,-3.779999c-0.072001,-1.296001 0.539999,-3.348 0.18,-3.672001c-0.540001,-0.360001 -2.484001,1.079998 -3.060001,1.548c-0.647999,0.396 -0.575998,0.251999 -0.612,1.115997c-0.18,0.900002 -0.108,2.807999 0.216,4.068001c0.252001,1.115997 0.936001,2.592003 1.620001,2.772003c0.612,0.035995 1.907999,-1.116005 2.232,-2.052002z" clip-rule="evenodd"/>
    <path fill="#000000" id="svg_21" fill-rule="evenodd" d="m16.812,75.204002c0.18,-0.396004 -0.792,-1.872002 -0.828,-3.024002c-0.108,-1.223999 0.54,-3.744003 0.432,-4.211998c-0.360001,-0.576004 -1.188001,0.612 -1.656,1.043999c-0.432,0.288002 -0.828,0.323997 -0.792,1.223999c-0.036,0.900002 0.072,3.311996 0.612,4.176003c0.468,0.827995 1.908001,1.043999 2.232,0.792z" clip-rule="evenodd"/>
    <path id="svg_22" fill-rule="evenodd" d="m13.68,79.739998c0.144,-0.612 -0.684,-1.115997 -0.828,-1.655998c-0.18,-0.612 0.108,-2.195999 -0.108,-2.124001c-0.432,-0.071999 -1.512,1.223999 -1.836,1.944c-0.36,0.576004 -0.288,1.043999 -0.18,1.835999c0.072001,0.648003 0.18,2.304001 0.72,2.340004c0.396,-0.036003 2.016,-1.692001 2.232,-2.340004z" clip-rule="evenodd"/>
    <path fill="#ff0000" id="svg_23" fill-rule="evenodd" d="m70.956001,70.632004c1.260002,-0.036003 2.591995,0 3.851997,0.107994c1.260002,-0.035995 2.627998,-0.035995 3.672005,0.288002c0.792,0.288002 0.647995,1.043999 1.655998,1.584c1.007996,0.503998 2.411995,0.828003 4.355995,1.260002c-0.071999,0.071999 0.324005,0 1.188004,-0.071999c0.863998,-0.144005 3.599998,-0.684006 3.744003,-0.504005c-0.144005,0.108002 -2.376007,0.972 -3.636002,1.188004c-1.260002,0.071999 -2.160004,-0.288002 -3.276001,-0.503998c-1.260002,-0.288002 -2.520004,-0.612007 -3.348,-0.972c-0.792,-0.504005 -0.683998,-1.116005 -1.475998,-1.296005c-0.936005,-0.18 -2.736,0.251999 -3.852005,0.18c-1.187996,-0.18 -2.052002,-0.647995 -2.879997,-1.259995z" clip-rule="evenodd"/>
    <path fill="#ff0000" id="svg_24" fill-rule="evenodd" d="m104.543999,75.744003c0.288002,-0.18 3.276001,0.683998 4.644005,0.792c1.223999,0 1.691994,-0.144005 3.059998,-0.288002c1.223999,-0.216003 3.312996,-0.540001 4.751999,-0.396004c1.367996,0.072006 1.764,1.008003 3.671997,1.403999c1.800003,0.360001 6.804001,0.576004 7.092003,0.792c-0.036003,0.18 -4.428001,0.504005 -6.227997,0.396004c-1.764,-0.251999 -2.340004,-1.403999 -3.960007,-1.512001c-1.727997,-0.143997 -4.211998,0.612 -5.903999,0.720001c-1.727997,0.036003 -3.023994,-0.071999 -4.175995,-0.323997c-1.223999,-0.396004 -3.276001,-1.440002 -2.952003,-1.584z" clip-rule="evenodd"/>
    <path fill="#ff0000" id="svg_25" fill-rule="evenodd" d="m73.475998,70.667999c-0.503998,-1.512001 -0.647995,-5.832001 -0.287994,-8.243999c0.215996,-2.411999 0.827995,-4.175999 1.835999,-5.832001c0.827995,-1.764 3.167999,-4.391998 3.671997,-4.284c0.431999,0.072002 -0.503998,1.944 -0.720001,4.788002c-0.323997,2.771999 -0.431999,9.575996 -0.720001,11.951996c-0.287994,2.268005 -0.612,1.404007 -1.115997,1.728004c-0.755997,0.251999 -2.159996,1.187996 -2.664001,-0.108002z" clip-rule="evenodd"/>
    <path fill="#ff0000" id="svg_26" fill-rule="evenodd" d="m86.112,73.655998c-0.972,-1.295998 -1.475998,-4.643997 -1.512001,-7.523994c-0.18,-3.060005 0.108002,-7.992004 0.863998,-9.792004c0.720001,-1.656002 2.664001,-1.692001 3.312004,-0.504002c0.503998,1.080002 -0.503998,4.284 -0.251999,6.84c0.108002,2.556004 0.972,5.868 1.332001,7.848003c0.215996,1.764 1.007996,2.375999 0.431999,2.951996c-0.756004,0.540001 -3.167999,1.296005 -4.176003,0.18z" clip-rule="evenodd"/>
    <path fill="#ff0000" id="svg_27" fill-rule="evenodd" d="m99.792,76.068001c-1.080002,-1.260002 -2.952003,-5.076004 -3.671997,-7.416c-0.864006,-2.304001 -0.828003,-4.176003 -0.720001,-6.048c0.143997,-1.944 1.043999,-5.363998 1.584,-5.400002c0.395996,-0.216 0.360001,1.98 1.295998,4.644001c0.936005,2.627998 3.528,8.891998 4.284004,11.160004c0.575996,2.124001 0.143997,1.511993 -0.324005,2.051994c-0.575996,0.468002 -1.439995,2.052002 -2.447998,1.008003z" clip-rule="evenodd"/>
    <path fill="#ff0000" id="svg_28" fill-rule="evenodd" d="m112.248001,76.860001c-0.863998,-0.576004 0,-1.835999 -0.863998,-3.779999c-0.936005,-2.088005 -3.888,-6.048004 -4.572006,-7.992004c-0.683998,-2.051998 -0.647995,-3.311996 0.108002,-3.635998c0.576004,-0.396 2.088005,0 3.564003,1.476002c1.295998,1.403999 3.671997,5.075996 4.751999,6.984001c1.008003,1.764 1.403999,3.023994 1.584,4.068001c0.071999,1.007996 -0.18,1.764 -0.900002,2.267998c-0.863998,0.468002 -2.916,1.043999 -3.671997,0.612z" clip-rule="evenodd"/>
    <path fill="#ff0000" id="svg_29" fill-rule="evenodd" d="m63.287998,87.192001c1.044003,-0.936005 3.240002,-6.335999 4.787998,-8.568001c1.332001,-2.232002 2.520004,-3.276001 3.564003,-4.5c1.008003,-1.295998 3.024002,-3.096001 2.556,-3.059998c-0.755997,-0.108002 -4.068001,1.439995 -5.903999,2.843994c-1.944,1.332001 -3.528,3.708 -4.608002,5.328003c-0.899998,1.547997 -1.439999,2.807999 -1.331997,4.176003c-0.035999,1.295998 -0.144001,4.5 0.935997,3.779999z" clip-rule="evenodd"/>
    <path fill="#ff0000" id="svg_30" fill-rule="evenodd" d="m77.435997,90.396004c0.864006,-1.260002 2.556,-6.408005 4.248001,-9.072006c1.620003,-2.736 4.716003,-5.759995 5.400002,-6.839996c0.503998,-1.152 -0.900002,-0.288002 -2.124001,0.503998c-1.367996,0.828003 -4.211998,2.627998 -5.615997,4.284004c-1.512001,1.584 -2.700005,3.563995 -3.132004,5.112c-0.540001,1.403999 0,2.627998 0.216003,3.671997c0.143997,0.972 0.108002,3.419998 1.007996,2.340004z" clip-rule="evenodd"/>
    <path fill="#ff0000" id="svg_31" fill-rule="evenodd" d="m99.972,76.788002c-1.188004,2.051994 -5.543999,7.811996 -7.236,10.619995c-1.620003,2.628006 -2.592003,5.076004 -3.059998,5.400002c-0.684006,0.144005 -0.684006,-2.771996 -0.828003,-3.888c-0.323997,-1.187996 -1.584,-1.080002 -0.720001,-2.736c0.828003,-1.799995 3.672005,-5.327995 5.616005,-7.127998c1.871994,-1.800003 4.355995,-3.276001 5.507996,-3.599998c0.972,-0.431999 1.764,-0.683998 0.720001,1.332001z" clip-rule="evenodd"/>
    <path fill="#ff0000" id="svg_32" fill-rule="evenodd" d="m104.148003,93.239998c-0.792,-0.503998 -1.260002,-2.267998 -0.972,-4.031998c0.251999,-1.907997 1.439995,-4.968002 2.447998,-6.840004c0.900002,-2.015999 2.015999,-3.707993 3.059998,-4.535995c0.936005,-0.863998 1.980003,-0.720001 2.700005,-0.396004c0.575996,0.18 1.547997,-0.287994 0.972,2.088005c-0.756004,2.339996 -3.564003,9.935997 -4.931999,12.239998c-1.440002,2.267998 -2.628006,1.835999 -3.276001,1.475998z" clip-rule="evenodd"/>
    <path fill="#ff0000" id="svg_33" fill-rule="evenodd" d="m118.475998,91.944c-0.575996,-0.323997 -0.431999,-1.295998 0.288002,-3.059998c0.683998,-1.872002 2.736,-5.436005 4.068001,-7.380005c1.223999,-1.871994 2.375999,-3.239998 3.456001,-3.959999c0.323997,-0.647995 -0.036003,-1.727997 -1.080002,-3.671997c-1.115997,-1.944 -4.391998,-5.903999 -5.255997,-7.704002c-0.900002,-1.944 -0.864006,-3.563999 0.107994,-3.348c0.972,0.251999 3.492004,2.340004 5.616005,4.751999c1.944,2.304001 5.543999,6.840004 6.228004,8.891998c0.539993,1.908005 -1.692001,1.116005 -2.664001,3.060005c-1.116013,1.979996 -2.268005,6.335999 -3.456009,8.783997c-1.223999,2.304001 -2.411995,4.931999 -3.563995,5.543999c-1.223999,0.540001 -2.520004,0 -3.744003,-1.907997z" clip-rule="evenodd"/>
    <path fill="#ff0000" id="svg_34" fill-rule="evenodd" d="m150.442993,94.139999c-0.576004,-0.288002 -0.684006,-1.223999 -0.180008,-3.204002c0.469009,-2.087997 1.729004,-6.119995 2.809006,-8.351997c0.899994,-2.232002 1.835999,-3.744003 2.806992,-4.68c0.182007,-0.683998 -0.321991,-1.835999 -1.653992,-3.599998c-1.514008,-1.907997 -5.221008,-5.292 -6.408005,-7.092003c-1.259995,-1.835999 -1.403992,-3.599998 -0.431992,-3.491997c0.970993,0.107998 3.923996,1.799995 6.335999,3.959999c2.339996,2.124001 6.515991,6.012001 7.522995,8.171997c0.791,1.908005 -1.438995,1.368004 -2.125,3.636002c-0.755997,2.160004 -1.294998,6.947998 -2.015991,9.648003c-0.900009,2.627998 -1.512009,5.435997 -2.664001,6.335999c-1.151993,0.792 -2.483994,0.395996 -3.996002,-1.332001z" clip-rule="evenodd"/>
    <path fill="#ff0000" id="svg_35" fill-rule="evenodd" d="m142.378998,78.984001c-0.936005,-0.503998 -0.358994,-1.944 -1.619003,-3.924004c-1.511993,-2.051994 -5.220993,-5.939995 -6.40799,-7.919998c-1.188004,-2.124001 -1.188004,-3.456001 -0.540009,-3.995998c0.611008,-0.612 2.268005,-0.288002 4.139008,0.971996c1.763992,1.223999 4.93399,4.931999 6.444992,6.804001c1.332001,1.728004 2.195007,2.916 2.447006,4.104004c0.287003,1.079994 0.145004,2.015999 -0.576004,2.664001c-0.789993,0.683998 -3.059998,1.584 -3.888,1.295998z" clip-rule="evenodd"/>
    <path fill="#ff0000" id="svg_36" fill-rule="evenodd" d="m133.992004,95.832001c-0.792007,-0.612 -1.368011,-2.375999 -1.044006,-4.32c0.251999,-1.944 1.584,-5.292 2.628006,-7.272003c0.970993,-2.195999 2.159988,-3.959999 3.274994,-4.860001c1.044998,-0.863998 2.087997,-0.863998 2.844009,-0.431999c0.540985,0.18 1.763992,-0.323997 1.044998,2.232002c-0.756012,2.664001 -3.852005,10.403999 -5.256012,13.068001c-1.510986,2.412003 -2.772995,2.015999 -3.491989,1.584z" clip-rule="evenodd"/>
    <path fill="#ff0000" id="svg_37" fill-rule="evenodd" d="m166.141006,79.704002c0.180008,-0.396004 1.69101,-0.756004 2.734009,-1.080002c0.899994,-0.503998 1.944992,-0.863998 3.276993,-1.080002c1.332001,-0.323997 2.844009,-0.215996 4.535004,-0.215996c1.438995,-0.108002 2.701004,0.431999 4.751999,0.107994c2.052994,-0.395996 5.184006,-2.015999 7.309006,-2.087997c2.015991,-0.18 4.534988,0.935997 4.644989,1.115997c-0.216995,-0.035995 -3.024994,-0.899994 -4.82399,-0.503998c-1.764008,0.431999 -3.529007,2.304001 -5.438004,2.844002c-1.906006,0.215996 -4.354996,-0.396004 -5.832001,-0.576004c-1.584,-0.18 -1.979004,-0.539993 -3.563004,-0.107994c-1.763992,0.395996 -5.041,2.231995 -6.335999,2.591995c-1.189011,0.251999 -1.656006,-0.683998 -1.259003,-1.007996z" clip-rule="evenodd"/>
    <path fill="#ff0000" id="svg_38" fill-rule="evenodd" d="m165.022995,94.571999c-0.611008,-0.18 -0.718994,-1.295998 -0.324005,-3.204002c0.251999,-2.015999 1.621017,-6.264 2.449005,-8.459999c0.791,-2.304001 1.690994,-3.743996 2.554993,-4.751999c-0.251999,-0.863998 -0.718994,-2.087997 -1.798996,-3.528c-1.080002,-1.692001 -3.313004,-3.456001 -4.356995,-5.292c-1.223007,-1.835999 -2.916,-4.895996 -2.15799,-5.147995c0.718994,-0.18 4.64299,1.799995 6.909988,3.851997c2.196991,1.944 5.904007,5.795998 6.696991,7.811996c0.684006,1.872002 -1.403992,1.440002 -1.979996,3.708c-0.611008,2.195999 -1.007996,7.020004 -1.584,9.756004c-0.576004,2.699997 -1.404007,5.435997 -2.339996,6.407997c-1.044998,0.900002 -2.446991,0.468002 -4.069,-1.152z" clip-rule="evenodd"/>
    <path fill="#ff0000" id="svg_39" fill-rule="evenodd" d="m183.313004,76.931999c-0.865005,-0.431999 -0.973007,-1.727997 -2.557007,-3.456001c-1.763992,-1.907997 -6.40799,-5.687996 -7.813004,-7.307999c-1.511993,-1.584 -1.763992,-2.34 -0.899994,-2.267998c0.865005,-0.144001 3.671997,0.431999 6.048996,1.872002c2.305008,1.367996 5.939011,5.003998 7.416,6.731995c1.26001,1.620003 1.152008,2.592003 0.791,3.348c-0.431992,0.720001 -2.123001,1.403999 -2.985992,1.080002z" clip-rule="evenodd"/>
    <path fill="#ff0000" id="svg_40" fill-rule="evenodd" d="m181.259995,93.348c-0.469009,-0.755997 0.610992,-2.592003 0.468994,-4.823997c-0.360992,-2.304001 -1.548996,-6.695999 -1.477005,-8.316002c0.10701,-1.655998 1.404007,-1.727997 2.375,-1.188004c0.828003,0.468002 2.77301,2.016006 3.061005,4.248001c0.216995,2.268005 -0.862991,7.164001 -1.584,9c-0.790985,1.512001 -2.519989,1.728004 -2.843994,1.080002z" clip-rule="evenodd"/>
    <path fill="#ff0000" id="svg_41" fill-rule="evenodd" d="m193.787003,91.547997c-0.539001,-1.043999 0.972992,-4.823997 1.080002,-7.307999c-0.10701,-2.519997 -1.404007,-6.264 -1.26001,-7.487999c0.10701,-1.367996 1.297012,-1.187996 2.053009,-0.288002c0.68399,0.828003 1.655991,3.168007 2.087997,5.508003c0.431992,2.304001 0.936005,6.192001 0.395996,7.919998c-0.75499,1.548004 -3.780991,2.556 -4.356995,1.655998z" clip-rule="evenodd"/>
    <path fill="#ff0000" id="svg_42" fill-rule="evenodd" d="m196.451004,77.328003c0.43399,-0.468002 1.403992,-1.872002 1.403992,-3.240005c0.037003,-1.403999 0.865005,-2.663994 -1.403992,-4.751999c-2.48201,-2.195999 -11.087997,-7.019997 -13.031006,-7.812c-1.942993,-0.863998 -0.431992,1.620003 1.188004,3.168003c1.548996,1.440002 5.796997,4.103996 7.595993,6.047997c1.621002,1.835999 1.621002,4.284004 2.376999,5.400002c0.718002,1.080002 1.294006,1.475998 1.87001,1.188004z" clip-rule="evenodd"/>
    <path fill="#ff0000" id="svg_43" fill-rule="evenodd" d="m205.561005,88.236c-0.576004,-0.108002 -0.828003,-1.008003 -0.900009,-2.844002c-0.037003,-1.872002 0.180008,-6.012001 0.64801,-8.099998c0.358994,-2.195999 0.791,-3.744003 1.438995,-4.788002c-0.289001,-0.792 -1.188004,-1.692001 -2.305008,-2.843994c-1.259995,-1.224007 -3.671997,-2.592003 -4.895996,-3.960007c-1.367004,-1.439995 -3.634995,-3.923996 -2.916,-4.247997c0.576004,-0.360001 4.572006,0.792 6.984009,2.195999c2.411987,1.332005 6.335999,4.104 7.487991,5.796001c0.973007,1.584 -0.972992,1.475998 -1.11499,3.708c-0.109009,2.159996 0.395996,6.444 0.395996,9.108002c-0.216995,2.484001 -0.109009,5.220001 -0.938004,6.264c-0.826996,1.007996 -2.121994,0.863998 -3.884995,-0.288002z" clip-rule="evenodd"/>
    <path id="svg_44" fill-rule="evenodd" d="m224.748001,39.456001c1.403992,-0.072002 2.843994,0.287998 4.462997,0.792c1.548996,0.396 3.529007,1.188 4.824005,2.375999c1.188995,1.152 2.125,2.807999 2.664001,4.824001c-2.303009,-1.296001 -4.391006,-2.484001 -6.408005,-3.852001c-2.016006,-1.403999 -3.813995,-2.736 -5.542999,-4.139999z" clip-rule="evenodd"/>
    <path id="svg_45" fill-rule="evenodd" d="m237.815994,51.408001c0.645996,0.936001 1.511993,1.944 2.446991,3.167999s1.943008,2.375999 3.167999,3.852001c0.504013,-1.224003 0.180008,-2.412003 -0.68399,-3.564003c-1.006989,-1.188 -2.556,-2.34 -4.931,-3.455997z" clip-rule="evenodd"/>
    <path fill="#ff0000" id="svg_46" fill-rule="evenodd" d="m236.520004,52.487999c-0.035004,-1.871998 -0.828003,-3.203999 -2.664001,-4.427998c-1.798996,-1.188 -4.5,-2.124001 -8.100006,-2.664001c0.721008,0.972 1.656006,1.944 2.664001,2.771999c1.080002,0.900002 2.375,1.656002 3.455002,2.268002c0.899994,0.503998 1.296997,0.144001 2.160004,0.576c0.755997,0.323997 1.584,0.863998 2.485001,1.475998z" clip-rule="evenodd"/>
    <path fill="#ff0000" id="svg_47" fill-rule="evenodd" d="m244.511993,62.891998c-0.359009,-0.899998 -2.59201,-3.635998 -3.637009,-4.751999c-1.149994,-1.223999 -3.095993,-2.52 -2.770996,-1.799999c0.359009,0.756001 3.563995,5.183998 4.751999,6.335999c1.080017,1.007999 1.90802,0.936001 1.656006,0.216z" clip-rule="evenodd"/>
    <path fill="#ff0000" id="svg_48" fill-rule="evenodd" d="m235.438995,57.060001c-0.32399,0.107998 -1.979996,-2.124001 -4.140991,-3.384003c-2.195007,-1.331997 -7.775009,-3.203999 -8.818008,-3.959999c-1.044998,-0.720001 1.080002,-0.827999 2.48201,-0.467999c1.332001,0.216 3.743988,1.295998 5.147995,1.871998c1.225006,0.360001 1.621002,0.035999 2.557007,0.972c0.863998,0.936001 2.951996,4.68 2.771988,4.968002z" clip-rule="evenodd"/>
    <path fill="#ff0000" id="svg_49" fill-rule="evenodd" d="m243.432007,73.260002c0.469009,0.035995 -0.972992,-5.292 -1.979996,-7.236c-1.188004,-1.980003 -2.988007,-3.456001 -4.139008,-4.428001c-1.188995,-1.080002 -1.835999,-1.692001 -2.483994,-1.692001c-0.720993,-0.144001 -1.225006,1.440002 -1.656006,1.296001c-0.431992,-0.251999 -0.503998,-1.332001 -1.187988,-2.268002c-0.828003,-1.043999 -1.549011,-2.736 -3.672012,-3.672001c-2.411987,-1.115997 -8.567993,-2.447998 -9.575989,-2.447998c-0.900009,0.035999 1.90799,1.079998 3.959,2.556c1.979996,1.368 6.228989,4.284 7.487991,5.832001c1.044998,1.403999 -1.187988,1.728001 -0.862991,2.771999c0.32399,0.900002 1.438995,1.475998 2.664001,3.131996c1.187988,1.620003 3.05899,4.68 3.959,6.552002c0.612991,1.800003 0.251999,4.536003 0.468994,4.32c0.180008,-0.360001 1.546997,-3.815994 0.899994,-6.192001c-0.755997,-2.556 -4.644989,-6.587997 -5.147995,-8.207996c-0.647995,-1.656002 0.791,-1.584 1.798996,-1.296001c0.973007,0.216 2.484009,0.864002 4.141006,2.772003c1.546982,1.727997 4.714996,8.028 5.326996,8.208z" clip-rule="evenodd"/>
    <path fill="#ff0000" id="svg_50" fill-rule="evenodd" d="m212.904007,57.636002c0.180008,-0.540001 4.031006,-0.648003 6.408005,0.503998c2.302994,1.007999 6.515991,4.535999 7.630997,6.120003c1.044998,1.512001 -1.656006,1.835999 -1.294998,3.348c0.251999,1.439995 2.339996,3.419998 3.059006,5.652c0.612991,2.195999 1.151993,7.127998 0.792999,7.307999c-0.503998,-0.036003 -2.088013,-5.003998 -3.240005,-6.840004c-1.151993,-1.871994 -3.313004,-3.059998 -3.563995,-4.247993c-0.324005,-1.404007 2.44899,-2.052002 1.655991,-3.456001c-0.935989,-1.548004 -4.534988,-3.600002 -6.515991,-5.040001c-2.088013,-1.476002 -5.076019,-2.916 -4.932007,-3.348z" clip-rule="evenodd"/>
    <path fill="#ff0000" id="svg_51" fill-rule="evenodd" d="m204.516006,60.119999c0,0.756001 9.145004,7.236004 11.053009,9.180004c1.798996,1.799995 -0.289001,1.439995 0,2.375999c0.179993,0.827995 0.610992,0.792 1.294998,3.239998c0.612991,2.339996 1.873001,10.403999 2.664001,11.159996c0.827988,0.684006 1.873001,-4.535995 1.873001,-6.911995c-0.251999,-2.627998 -2.521011,-6.264 -2.77301,-7.992004c-0.251999,-1.691994 1.404007,-1.043999 1.080002,-2.087997c-0.503998,-1.187996 -1.438995,-3.348 -3.923996,-4.823997c-2.628006,-1.656002 -11.196014,-4.932003 -11.268005,-4.140003z" clip-rule="evenodd"/>
    <path fill="#ff0000" id="svg_52" fill-rule="evenodd" d="m96.120003,252.358994c-1.223999,-0.143005 -2.304001,-0.719009 -3.240005,-2.123001c-1.079994,-1.438995 -2.807999,-5.580002 -2.663994,-6.048996c0.215996,-0.432007 2.339996,1.728989 3.599998,3.132996c1.043999,1.224991 2.519997,3.563995 3.059998,4.393005c0.468002,0.718994 0.468002,0.718994 0,0c1.043999,0.503998 1.907997,1.222992 2.736,1.763992c0.792,0.539001 2.052002,1.294998 1.980003,1.727005c-0.288002,0.289001 -2.088005,0.900009 -3.024002,0.468994c-0.900002,-0.469986 -1.764,-1.619995 -2.447998,-3.313995z" clip-rule="evenodd"/>
    <path fill="#ff0000" id="svg_53" fill-rule="evenodd" d="m107.136002,253.404007c-1.584,0.576004 -2.952003,-0.216995 -4.644005,-1.979996c-1.655998,-1.979996 -5.255997,-8.389008 -5.112,-9.072006s3.744003,3.38501 5.652,5.113007c1.800003,1.727005 3.959999,3.959 4.931999,4.895004c0.792,0.792999 0.792,0.792999 0,0c1.440002,0.541 2.736,1.044998 3.888,1.655991c1.116005,0.503998 3.024002,1.225006 2.952003,1.764008c-0.251999,0.395981 -2.484001,1.655991 -3.779999,1.296982c-1.332001,-0.432007 -2.627998,-1.656998 -3.888,-3.672989z" clip-rule="evenodd"/>
    <path fill="#ff0000" id="svg_54" fill-rule="evenodd" d="m112.211998,249.300995c-2.519997,-0.792999 -4.32,-2.087997 -5.400002,-3.889008c-1.259995,-1.979996 -1.691994,-6.408005 -1.295998,-7.056992c0.431999,-0.611008 2.375999,1.728989 3.744003,3.528992c1.332001,1.764008 2.447998,4.031006 3.888,6.947006c5.795998,2.052994 8.963997,3.419998 9.647995,4.104004c0.540001,0.575989 -4.068001,0.251999 -5.759995,0c-1.764,-0.180008 -3.456001,-0.611008 -4.248001,-1.152008c-0.863998,-0.645996 -1.008003,-1.473984 -0.576004,-2.481995z" clip-rule="evenodd"/>
    <path fill="#ff0000" id="svg_55" fill-rule="evenodd" d="m121.391998,244.690994l1.043999,-1.402008c-1.223999,-0.612991 -2.267998,-1.837997 -3.275993,-3.384995c-1.080002,-1.690994 -2.124001,-5.725006 -2.844002,-6.264008c-0.863998,-0.503998 -1.764,1.584 -1.872002,2.951004c-0.216003,1.259995 0.143997,2.664001 1.080002,4.354996c0.935997,1.549011 2.375999,3.025009 4.463997,4.71701c-1.007996,0.862991 -1.152,1.690994 -0.575996,2.339996c0.575996,0.647995 1.799995,1.151993 4.211998,1.511993c2.304001,0.289001 5.435997,0.289001 9.540001,0.145004c-3.384003,-0.647995 -6.048004,-1.438995 -7.992004,-2.231995c-1.979996,-0.863998 -3.239998,-1.728989 -3.779999,-2.737z" clip-rule="evenodd"/>
    <path fill="#ff0000" id="svg_56" fill-rule="evenodd" d="m132.768005,240.335999l1.26001,-1.403992c-1.223999,-0.828003 -2.23201,-2.088013 -3.167999,-3.924011c-0.972,-1.979996 -1.62001,-6.118988 -2.376007,-6.875c-0.900002,-0.612991 -1.979996,1.475006 -2.267998,2.916c-0.323997,1.294998 -0.144005,2.916 0.683998,4.715012c0.863998,1.692993 2.195999,3.456985 4.283997,5.435989c-1.187988,0.792999 -1.475998,1.693008 -0.863998,2.412003c0.540009,0.647995 1.835999,1.514008 4.320007,2.052994c2.412994,0.539001 5.722992,0.792999 10.080994,1.045013c-3.457001,-1.080002 -6.335999,-2.125 -8.244003,-3.133011c-1.945007,-1.115997 -3.313004,-2.195999 -3.709,-3.240997z" clip-rule="evenodd"/>
    <path fill="#ff0000" id="svg_57" fill-rule="evenodd" d="m142.488007,235.259995l1.080002,-1.546997c-1.369003,-0.686005 -2.556992,-1.836014 -3.709,-3.457001c-1.294998,-1.799011 -2.447006,-5.904007 -3.313004,-6.480011c-0.897995,-0.610992 -1.798996,1.908005 -1.871002,3.240005c-0.107986,1.296997 0.252014,2.916 1.367004,4.572006c1.044998,1.620987 2.664001,3.022995 5.003998,4.751999c-1.007996,1.044998 -1.222992,1.835999 -0.503998,2.519989c0.686005,0.64801 2.018005,1.117004 4.572006,1.404007c2.44899,0.179993 5.832001,0 10.151993,-0.395996c-3.707001,-0.574005 -6.442993,-1.223007 -8.604004,-1.943008c-2.123001,-0.756989 -3.561996,-1.692993 -4.173996,-2.664993z" clip-rule="evenodd"/>
    <path fill="#ff0000" id="svg_58" fill-rule="evenodd" d="m151.955002,228.457001c0.686005,1.078003 3.240005,0.251999 3.780991,-1.514008c0.395004,-1.942993 -0.647995,-7.522995 -1.188995,-9.538986c-0.68399,-2.088013 -2.194992,-2.953003 -2.591995,-2.447006c-0.503998,0.503998 -0.432007,2.916 -0.359009,5.291c0,2.268005 -0.431992,6.947006 0.359009,8.209z" clip-rule="evenodd"/>
    <path fill="#ff0000" id="svg_59" fill-rule="evenodd" d="m153.720993,230.255997c0.251999,0.251999 0,0.541 -0.469009,1.152008c-0.541,0.575989 -1.438995,1.187988 -2.69899,2.123001c0.935989,0.827988 2.339996,1.403992 4.210999,1.873001c1.835999,0.468994 4.858994,0.972992 6.839996,0.827988c1.908005,-0.251999 3.348007,-1.080002 4.464996,-2.339996c-2.304993,0.395996 -4.464996,0.359009 -6.479996,-0.251999c-2.088989,-0.647995 -3.996994,-1.727997 -5.867996,-3.384003z" clip-rule="evenodd"/>
    <path fill="#ff0000" id="svg_60" fill-rule="evenodd" d="m172.080002,220.932007c0.106995,0.251999 0.503998,0.072006 1.042999,-0.68399c0.468994,-0.863007 1.225006,-1.943008 2.125,-3.779007c0.503998,-0.647995 1.042999,-1.117004 2.016006,-1.404007c0.862991,-0.32399 2.231995,-0.468994 3.274994,-0.575989c0.972992,-0.21701 1.729004,0.179993 2.701004,-0.611008c0.827988,-0.86499 1.546997,-3.563995 2.843994,-4.356995c1.294998,-0.899994 3.348007,-0.395004 5.039001,-0.576004c1.656006,-0.251999 3.636993,0.182007 4.824005,-0.358994c1.116989,-0.539001 1.151993,-1.943008 1.90799,-2.809006c0.613007,-0.936005 1.117004,-2.302994 2.340012,-2.699005c1.224991,-0.468994 3.419998,-0.034988 5.18399,-0.251999c1.693008,-0.251999 3.205002,-0.899994 4.824005,-1.548996c-2.734009,1.259995 -4.859009,2.160004 -6.371002,2.844009c-1.548996,0.647995 -2.195007,0.395996 -2.916,1.188995c-0.863007,0.755997 -0.358994,2.26799 -2.376999,3.274994c-2.268005,0.863007 -8.207001,0.973007 -10.584,2.125c-2.481995,1.042999 -1.943008,3.275009 -3.779007,4.354996c-1.871002,0.936005 -5.903992,0.828003 -7.380997,1.764008c-1.584,0.791 -0.970993,2.809006 -1.653992,3.526993c-0.756012,0.541 -1.873001,0.686005 -2.376999,0.721008c-0.576004,0.033981 -0.756012,0.033981 -0.684006,-0.145004z" clip-rule="evenodd"/>
    <path fill="#ff0000" id="svg_61" fill-rule="evenodd" d="m174.526993,216c0.576004,1.080002 3.313004,0.251999 3.780991,-1.511993c0.395004,-1.943008 -0.647995,-7.52301 -1.188995,-9.541c-0.68399,-2.05101 -2.194992,-3.02301 -2.591995,-2.48201c-0.576004,0.503998 -0.359009,2.916 -0.324005,5.291c-0.141983,2.23201 -0.358994,7.057007 0.324005,8.244003z" clip-rule="evenodd"/>
    <path fill="#ff0000" id="svg_62" fill-rule="evenodd" d="m176.542999,217.656006c0.216995,0.432007 0.145004,0.900009 -0.214996,1.404007c-0.469009,0.466995 -1.225006,0.970993 -2.268005,1.511993c1.367004,0.432007 2.664001,0.936005 4.283005,1.512009c1.511993,0.468994 3.419998,1.942993 4.895996,1.90799c1.512009,-0.071991 2.591995,-0.862991 3.779007,-2.231995c-0.432007,-0.145004 -1.439011,-0.539001 -3.167999,-1.188004c-1.797012,-0.720001 -4.139008,-1.69101 -7.307007,-2.916z" clip-rule="evenodd"/>
    <path fill="#ff0000" id="svg_63" fill-rule="evenodd" d="m169.378998,222.229004c0,-0.396011 -2.878998,-0.576004 -3.778992,-0.109009c-1.008011,0.396011 -0.539001,1.369003 -1.656006,2.34201c-1.115005,0.862991 -4.787003,2.26799 -5.039001,2.843994c-0.395996,0.432007 1.871002,0.645996 2.916,0.214996c0.899994,-0.539001 1.690994,-2.339996 2.951004,-3.167999c1.29599,-1.009003 4.354996,-1.764999 4.606995,-2.123993z" clip-rule="evenodd"/>
    <path fill="#ff0000" id="svg_64" fill-rule="evenodd" d="m162.432007,222.839996c0.64801,0.973007 3.240005,0.359009 3.744003,-1.546997c0.358994,-1.944992 -0.576004,-7.524994 -1.151993,-9.541c-0.684006,-2.087997 -2.195007,-2.951004 -2.59201,-2.447006c-0.503998,0.504013 -0.431992,2.916 -0.358994,5.291c-0.001007,2.23201 -0.432007,7.056 0.358994,8.244003z" clip-rule="evenodd"/>
    <path fill="#ff0000" id="svg_65" fill-rule="evenodd" d="m164.195007,224.604004c0.251999,0.251999 0,0.541 -0.466995,1.151993c-0.541,0.576004 -1.44101,1.188004 -2.701004,2.125c0.936005,0.791 2.339996,1.475006 4.212997,1.908005c1.835999,0.503998 4.859009,0.897995 6.840012,0.791c1.90799,-0.251999 3.347992,-1.080002 4.462997,-2.339996c-2.303009,0.395996 -4.462997,0.358994 -6.479004,-0.251999c-2.087006,-0.64801 -3.996017,-1.728012 -5.869003,-3.384003z" clip-rule="evenodd"/>
    <path fill="#ff0000" id="svg_66" fill-rule="evenodd" d="m186.912003,209.412003c-0.684006,-0.503998 -0.647995,-2.484009 -0.721008,-4.572006c-0.144989,-2.123001 -0.106995,-6.084 0.251999,-7.560989c0.396011,-1.512009 1.369003,-2.303009 2.088013,-1.402008c0.612991,0.755997 1.47699,4.354996 1.763992,6.227005c0.145004,1.873001 0.182007,3.528992 -0.321991,4.82399c-0.649002,1.223999 -2.450012,2.701004 -3.061005,2.484009z" clip-rule="evenodd"/>
    <path fill="#ff0000" id="svg_67" fill-rule="evenodd" d="m186.442993,211.283005c0.935989,-0.035004 2.26799,0.827988 3.996002,1.765991c1.728989,0.791 5.832001,2.05101 6.335999,2.951004c0.360992,0.863007 -1.908005,2.087997 -3.887009,1.873001c-2.089996,-0.468994 -7.056992,-3.169998 -8.10199,-4.212997c-1.149002,-1.186996 0.650009,-2.305008 1.656998,-2.376999z" clip-rule="evenodd"/>
    <path fill="#ff0000" id="svg_68" fill-rule="evenodd" d="m199.259995,204.839996c-0.611008,-1.188004 -0.721008,-5.435989 -0.469009,-7.882996c0.21701,-2.593994 1.117004,-6.408005 1.873001,-6.731995c0.684006,-0.21701 1.764008,2.770996 2.123001,5.075989c0.072006,2.230011 -0.251999,6.408005 -0.828003,8.100006c-0.645981,1.546005 -2.194977,2.447006 -2.69899,1.438995z" clip-rule="evenodd"/>
    <path fill="#ff0000" id="svg_69" fill-rule="evenodd" d="m196.774994,208.690994c2.304993,1.259995 4.537003,2.125 6.696991,2.735992c2.195007,0.503998 5.39801,0.973007 6.119003,0.576004c0.432007,-0.576004 -0.972992,-2.231995 -2.699005,-3.167999c-1.765991,-0.899994 -4.177994,-1.656006 -7.524994,-2.123001c-0.539001,0.684006 -1.007996,1.367004 -1.403992,1.654007c-0.466995,0.290009 -0.862991,0.39801 -1.188004,0.324997z" clip-rule="evenodd"/>
    <path fill="#ff0000" id="svg_70" fill-rule="evenodd" d="m208.656006,201.419998c1.69101,-1.619003 2.664001,-3.888992 3.313004,-6.946991c0.503998,-3.096008 -0.434006,-9.324005 0.106995,-11.197006c0.504013,-1.908005 2.484009,-1.438995 3.167999,-0.106995c0.611008,1.259995 0.863007,4.788986 0.611008,7.522995c-0.324005,2.628998 -1.152008,5.292999 -2.483994,8.136993c2.44899,1.549011 4.175995,3.02301 5.185989,4.572006c0.971008,1.477005 1.294998,3.707001 0.684006,4.354996c-0.792999,0.503998 -3.313004,0.180008 -5.041,-0.828003c-1.800018,-1.153 -3.600006,-2.843994 -5.544006,-5.507996z" clip-rule="evenodd"/>
    <path fill="#ff0000" id="svg_71" fill-rule="evenodd" d="m216.755997,197.136993c1.296997,0.32399 2.339996,0.106995 3.275009,-0.938004c0.792999,-1.007996 1.584,-2.554993 2.231995,-5.184006c0.647995,-2.843994 1.225006,-9.286987 2.016006,-11.411987c0.720993,-2.160004 2.087997,-2.627014 2.591995,-1.547012c0.289001,1.008011 0.145004,5.291 0,7.416c-0.214996,2.016006 -0.645996,3.852005 -0.611008,4.824005c0.035004,0.897995 0.359009,1.007996 0.973007,0.466995c-0.721008,0.289001 -1.225006,0.756012 -1.656006,1.404007c-0.503998,0.647995 -1.007996,1.438995 -0.828003,2.376999c0.10701,0.755997 1.188004,1.115005 1.871002,2.339996c0.686005,1.150009 2.270004,3.382996 2.125,4.60701c-0.395996,1.187988 -2.519989,2.843994 -3.743988,2.446991c-1.332001,-0.645996 -2.195007,-4.210999 -3.564011,-5.397995c-1.405991,-1.150986 -2.916992,-1.619995 -4.681,-1.403z" clip-rule="evenodd"/>
    <path fill="#ff0000" id="svg_72" fill-rule="evenodd" d="m228.526993,191.231995c0.755997,0.358994 1.440994,0.179993 2.339996,-0.684006c0.865005,-0.938004 1.945007,-1.513992 2.701004,-4.356995c0.645996,-2.951004 0.395004,-10.656006 1.188004,-12.707001c0.68399,-1.980011 2.628998,-1.368988 3.060989,0.466995c0.395004,1.766006 -0.541,7.561005 -0.720993,9.758011c-0.395996,2.050995 -1.225006,1.906006 -0.936005,2.481995c0.287003,0.504013 1.656006,0.792999 2.699005,0.469009c0.899994,-0.432007 2.160004,-1.332001 2.953003,-2.844009c0.610992,-1.728989 0.897995,-3.923996 1.401993,-6.587997c0.468994,-2.735992 1.152008,-8.748001 1.766006,-9.289001c0.539001,-0.503998 1.690994,3.81601 1.655991,6.012009c-0.037003,2.089996 -2.089996,5.220993 -1.873001,6.479996c0.145004,1.117004 1.115005,1.225006 2.916,0.324005c-1.438995,0.358994 -2.412003,1.044998 -2.916,1.763992c-0.539001,0.684006 -0.395996,1.369003 -0.251999,2.736008c0.180008,1.296997 0.936005,3.563995 0.721008,5.292999c-0.361008,1.653992 -1.549011,3.130997 -3.167999,4.569992c0.286987,-2.339996 0,-4.103989 -0.721008,-5.291c-0.899994,-1.296997 -3.167999,-2.159988 -3.888992,-2.015991c-0.828003,0.214996 -0.287003,1.151993 -0.46701,2.950989c-0.251999,1.621002 -0.216995,5.545013 -0.720993,7.057007c-0.576004,1.477005 -1.259995,2.016006 -2.339996,1.763992c0.503998,-2.194992 0.541,-3.743988 0.106995,-4.931992c-0.503998,-1.188004 -1.727005,-1.584 -2.699005,-2.016006c-1.11499,-0.575989 -2.950989,-0.827988 -3.419998,-1.044998c-0.501984,-0.177994 -0.249985,-0.429993 0.613007,-0.358002z" clip-rule="evenodd"/>
    <path fill="#ff0000" id="svg_73" fill-rule="evenodd" d="m248.147995,179.460999c0.610992,-0.324005 1.332001,-1.296997 2.016006,-3.061005c0.720993,-1.835999 1.511993,-5.36499 2.231995,-7.522995c0.611008,-2.304993 0.89801,-5.112991 1.402008,-5.509995c0.360992,-0.359009 1.403992,0.720993 1.188995,3.384995c-0.289001,2.557007 -1.188995,6.479996 -2.701004,11.916c2.340012,-2.231995 4.068008,-4.716995 5.185989,-7.309006c1.008026,-2.663986 0.791016,-7.378998 1.295013,-8.459c0.575989,-1.116989 1.584015,0.576004 1.764008,1.619003c0,0.792999 -1.115021,2.087997 -1.547028,3.889008c-0.612976,1.835999 -1.007996,4.140991 -1.583984,7.056992c-2.736008,1.402008 -4.393005,3.02301 -5.36499,4.714996c-0.863007,1.656006 0.395996,3.781006 -0.10701,5.545013c-0.610992,1.618988 -1.835999,3.23999 -3.526993,4.571991c1.259995,-1.765991 1.798996,-3.313004 1.763992,-5.041c-0.071991,-1.763992 -1.979996,-4.104004 -2.231995,-5.076004c-0.397995,-0.970993 -0.326004,-1.259995 0.214996,-0.718994z" clip-rule="evenodd"/>
   </g>
  </g>
 </g>
</svg>