<?xml version="1.0" encoding="UTF-8" standalone="no"?>
<!-- Created with Inkscape (http://www.inkscape.org/) -->

<svg
   xmlns:dc="http://purl.org/dc/elements/1.1/"
   xmlns:cc="http://creativecommons.org/ns#"
   xmlns:rdf="http://www.w3.org/1999/02/22-rdf-syntax-ns#"
   xmlns:svg="http://www.w3.org/2000/svg"
   xmlns="http://www.w3.org/2000/svg"
   xmlns:sodipodi="http://sodipodi.sourceforge.net/DTD/sodipodi-0.dtd"
   xmlns:inkscape="http://www.inkscape.org/namespaces/inkscape"
   width="210mm"
   height="297mm"
   viewBox="0 0 744.09448819 1052.3622047"
   id="svg2"
   version="1.1"
   inkscape:version="0.91 r13725"
   sodipodi:docname="Baseballdude1.svg">
  <defs
     id="defs4" />
  <sodipodi:namedview
     id="base"
     pagecolor="#ffffff"
     bordercolor="#666666"
     borderopacity="1.0"
     inkscape:pageopacity="0.0"
     inkscape:pageshadow="2"
     inkscape:zoom="0.061871843"
     inkscape:cx="-3963.163"
     inkscape:cy="-668.47608"
     inkscape:document-units="px"
     inkscape:current-layer="g4147"
     showgrid="false"
     inkscape:window-width="1920"
     inkscape:window-height="1027"
     inkscape:window-x="-8"
     inkscape:window-y="-8"
     inkscape:window-maximized="1" />
  <metadata
     id="metadata7">
    <rdf:RDF>
      <cc:Work
         rdf:about="">
        <dc:format>image/svg+xml</dc:format>
        <dc:type
           rdf:resource="http://purl.org/dc/dcmitype/StillImage" />
        <dc:title></dc:title>
      </cc:Work>
    </rdf:RDF>
  </metadata>
  <g
     inkscape:label="Layer 1"
     inkscape:groupmode="layer"
     id="layer1">
    <g
       id="g4147"
       transform="translate(-866.71088,127.27922)">
      <path
         style="fill:#0c0d0f"
         d="m 1208.7663,-77.57126 c -0.8912,0.02523 -1.8466,0.165855 -2.95,0.315532 -5.4692,0.741953 -9.8022,2.691051 -15.9606,7.180739 -6.4678,4.715315 -6.4223,7.599716 0.3431,21.738259 5.7863,12.092254 18.9551,32.745653 62.8162,98.526778 14.0705,21.10245 25.5827,39.10844 25.5827,40.01175 0,0.90329 -2.0366,4.11833 -4.5276,7.14397 -3.8932,4.728902 -4.502,6.063902 -4.3256,9.508982 0.3223,6.29407 0.058,7.49125 -1.7952,8.18246 -3.5298,1.31621 -8.1276,5.76398 -8.7125,8.42757 -0.3319,1.51084 -1.2526,2.74792 -2.0434,2.74792 -0.7908,0 -1.7253,0.78067 -2.0769,1.73391 -0.3517,0.95326 -1.1159,2.10299 -1.7003,2.55493 -0.5868,0.4537 0.8219,0.60501 3.1462,0.34003 4.5358,-0.51708 6.0843,0.53927 4.1725,2.84289 -1.5135,1.82364 0.2162,1.96457 2.9745,0.24206 2.439,-1.52311 3.4142,-0.56941 2.6255,2.57328 -0.8449,3.36606 -16.2243,11.00452 -20.4547,10.15843 -4.2613,-0.85225 -8.0581,0.81154 -23.0587,10.11243 l -13.6813,8.48271 -10.471,14.24198 c -5.7587,7.8331 -20.6933,27.23755 -33.1894,43.12116 -22.5644,28.68118 -22.8524,28.99486 -41.7089,45.55969 -10.4429,9.1736 -23.5819,20.9598 -29.1978,26.19253 -5.6156,5.23274 -10.9839,10.05704 -11.9291,10.71901 -3.4095,2.38814 -13.2453,16.31112 -14.0888,19.94309 -0.4745,2.04329 -0.8699,7.05948 -0.8761,11.14485 -0.013,8.48558 -3.9412,26.54086 -7.432,34.1667 -1.2467,2.72355 -5.2885,9.15695 -8.9851,14.29406 -8.0264,11.15405 -9.8216,15.55253 -12.3335,30.24547 -3.4511,20.18652 -0.1761,47.41539 6.9725,57.96664 0.9225,1.36181 2.674,4.4814 3.8936,6.9326 7.2729,14.61721 11.2182,19.84461 23.6989,31.40961 6.8601,6.3568 19.3823,18.30204 27.8254,26.54176 20.8773,20.37453 36.2164,33.53496 48.044,41.22181 12.0216,7.81292 26.0245,20.26867 30.6959,27.30455 3.0331,4.56822 10.4216,11.42211 15.1885,14.08884 1.3383,0.7486 1.6685,2.7181 1.7861,10.64551 l 0.147,9.72647 -5.9247,12.37941 c -7.0078,14.6425 -6.1333,13.12585 -11.6963,20.29843 -9.171,11.8247 -22.149,25.80053 -25.1356,27.06865 -1.7001,0.72189 -5.9897,4.11475 -9.5304,7.54222 -3.5406,3.42749 -8.9761,8.071 -12.0792,10.31771 -4.0933,2.96376 -6.6166,5.82635 -9.1934,10.43415 -1.9535,3.49305 -4.2156,6.90242 -5.0272,7.57591 -1.8674,1.54984 -1.0222,4.5413 2.2761,8.06607 1.8021,1.92575 2.351,3.3896 1.9882,5.28749 -0.4781,2.50106 -0.3451,2.5949 2.7909,2.00658 2.8846,-0.54118 3.5706,-0.23275 5.5724,2.50285 1.256,1.71628 4.8715,4.88441 8.0324,7.03981 3.1606,2.15543 6.1617,5.00979 6.6691,6.34443 0.705,1.85425 1.4498,2.30951 3.1646,1.92689 1.5107,-0.33702 6.1284,1.51537 14.1286,5.67047 l 11.8861,6.17285 0.7506,9.41095 c 0.4122,5.17476 0.8578,10.48329 0.9896,11.79735 0.1902,1.88672 -0.6748,2.92853 -4.1081,4.95359 -3.6681,2.16347 -4.5309,3.28999 -5.5265,7.21138 -0.6491,2.55622 -1.7469,5.33017 -2.4386,6.16366 -0.894,1.07716 -1.0588,3.22733 -0.5697,7.44111 0.5105,4.39905 0.2587,7.22121 -0.9742,10.93348 -2.2702,6.83466 -1.2503,18.85884 1.9116,22.53475 1.9981,2.32293 2.858,2.52843 11.0193,2.6652 4.8676,0.0816 14.5322,-0.2604 21.4778,-0.76279 l 12.6275,-0.91292 12.6276,3.59039 c 10.4083,2.96157 15.1478,3.7452 26.9859,4.45122 l 0,0 c 26.8984,1.60419 40.3558,1.35137 47.5019,-0.88844 7.5259,-2.35877 9.4927,-3.90106 10.3331,-8.10282 1.1969,-5.98449 -0.23,-9.49498 -4.9965,-12.28751 -2.4049,-1.4094 -6.2522,-2.95904 -8.5501,-3.44639 -9.1024,-1.93027 -13.4811,-4.81497 -18.0652,-11.90151 -2.9116,-4.50091 -6.3808,-8.19074 -10.7466,-11.42667 -3.5464,-2.62854 -6.987,-6.03252 -7.6433,-7.56368 -0.6564,-1.53111 -2.6309,-3.88142 -4.39,-5.22318 -2.2374,-1.70658 -3.3797,-3.54872 -3.7987,-6.12997 -0.8231,-5.07143 -4.0038,-10.77341 -8.9606,-16.06784 -5.7372,-6.1283 -11.4848,-13.49715 -11.4848,-14.72292 0,-0.5595 1.191,-1.5962 2.6468,-2.3068 2.4201,-1.18144 3.3963,-3.79316 11.3899,-30.50891 10.5669,-35.3158 15.5062,-50.51608 20.5374,-63.19905 2.7732,-6.99071 4.6984,-14.56975 7.0919,-27.91727 l 3.2871,-18.32251 15.0383,-14.85467 c 17.188,-16.97728 45.0985,-49.17823 49.4687,-57.07214 2.4997,-4.51522 2.942,-6.37576 2.9074,-12.25685 -0.035,-6.00459 -0.4977,-7.76596 -3.4649,-13.16366 -2.9236,-5.31889 -5.0302,-7.45154 -14.3859,-14.55141 -6.029,-4.57537 -22.5198,-18.37171 -36.6449,-30.65903 -19.4252,-16.89738 -30.3488,-25.52793 -44.8368,-35.42579 -10.5355,-7.19747 -23.8741,-16.89182 -29.6389,-21.54219 -9.097,-7.33843 -10.6448,-9.02652 -11.7208,-12.77155 -0.682,-2.37323 -2.2742,-5.41552 -3.5383,-6.76103 l -2.2976,-2.44466 3.1186,-5.60612 c 1.7154,-3.08328 3.8322,-5.94736 4.7024,-6.36278 2.182,-1.04186 4.5593,-2.44009 7.8057,-4.59212 1.6435,-1.08935 5.5541,-2.08812 9.6866,-2.47219 4.95,-0.46007 8.4109,-1.46676 12.1007,-3.52604 2.8417,-1.5861 9.3461,-4.01806 14.4564,-5.40394 9.2796,-2.51662 9.5668,-2.6758 28.0244,-15.42448 2.3511,-1.62394 5.2049,-5.32184 8.0537,-10.43718 6.1499,-11.04203 8.0938,-16.57597 6.7213,-19.14043 -0.5958,-1.11342 -1.0843,-2.43802 -1.0843,-2.94402 0,-0.506 4.1211,-2.37256 9.1597,-4.15096 5.0383,-1.7784 9.5857,-3.62392 10.1032,-4.09892 1.8439,-1.6925 4.3084,-0.81596 6.7673,2.40787 1.3724,1.79959 4.4967,5.25505 6.9448,7.67704 2.4482,2.42197 6.1286,7.30092 8.1763,10.84156 4.9652,8.58491 15.5759,20.39602 20.6293,22.96057 2.2431,1.13837 5.9422,3.34497 8.2191,4.90459 6.509,4.45836 10.2903,3.96619 24.8352,-3.23194 10.2042,-5.04993 13.621,-7.35591 20.3844,-13.75797 6.4409,-6.09692 8.6079,-8.89613 10.4524,-13.4945 3.5954,-8.9633 8.2117,-16.20746 10.7315,-16.8398 1.2295,-0.30857 4.4652,-3.39815 7.1897,-6.86521 2.7246,-3.46707 6.2407,-6.96869 7.8119,-7.78118 1.571,-0.81249 3.1462,-2.23333 3.5014,-3.15841 0.3549,-0.92509 0.1396,-6.17937 -0.4779,-11.67481 -0.8827,-7.85766 -1.8515,-11.514 -4.5402,-17.12167 -1.9425,-4.053 -4.2207,-7.38523 -5.2749,-7.7199 -2.6255,-0.8333 -6.356,-7.21513 -6.945,-11.87701 -0.3886,-3.07547 -1.1958,-4.38601 -3.6454,-5.94004 -1.7295,-1.09705 -3.4022,-2.97703 -3.7191,-4.17548 -0.3168,-1.19843 -2.8006,-4.09412 -5.5202,-6.43632 -3.2643,-2.81106 -4.9472,-5.03396 -4.9477,-6.53739 -6e-4,-2.95548 -2.4806,-7.72086 -4.402,-8.45821 -0.8275,-0.31749 -1.7957,-2.3919 -2.1506,-4.61047 -1.4118,-8.83074 -6.6923,-11.10627 -14.7813,-6.36587 -2.3957,1.404 -4.7872,2.28667 -5.3149,1.96061 -0.5276,-0.3261 -2.414,-3.14418 -4.1908,-6.26476 -1.7769,-3.12059 -5.5225,-9.24098 -8.3235,-13.59869 -12.3667,-19.24045 -23.2301,-37.4702 -23.2301,-38.97936 0,-0.90219 1.5012,-3.01827 3.3364,-4.70239 3.1894,-2.92725 3.9961,-4.98369 6.0687,-15.49187 0.3557,-1.80526 1.1591,-2.72649 2.383,-2.72649 1.539,0 1.9579,-1.05575 2.5245,-6.3444 0.9107,-8.50651 4.6125,-14.45337 8.9942,-14.45337 1.6805,0 3.7988,-0.55674 4.7084,-1.23763 1.5244,-1.14143 1.5334,-1.64379 0.1095,-6.45163 -1.4148,-4.7806 -1.4049,-5.77118 0.1342,-11.886202 2.2095,-8.77343 1.3631,-19.17247 -2.5548,-31.40347 -3.6188,-11.29715 -7.0175,-15.1646 -18.3009,-20.822279 l -7.9007,-3.961047 -15.3538,0 c -14.0315,0 -15.9001,0.212766 -21.6803,2.475278 -3.4865,1.364796 -8.4408,4.364308 -11.0375,6.684438 -2.5909,2.31504 -5.3294,4.20918 -6.0871,4.20918 -1.8034,0 -12.0594,-17.444344 -46.0007,-78.240567 -27.2754,-48.855849 -30.2838,-54.411835 -36.5227,-54.235395 z m 124.3273,252.31212 c 2.5966,0 35.6277,48.62996 35.6277,52.45244 0,0.90959 -2.2453,2.89557 -5.1372,4.54615 -4.313,2.46151 -5.755,4.08378 -8.994,10.10632 -4.1723,7.75649 -4.7051,8.02327 -12.4162,6.19739 -4.6123,-1.09209 -6.2229,-3.57928 -5.5297,-8.53784 0.4188,-2.9956 0.035,-5.11725 -1.455,-8.03851 -1.1137,-2.18257 -2.5557,-6.07491 -3.2045,-8.65118 -0.6487,-2.57631 -2.5945,-6.75899 -4.3257,-9.29453 -1.7308,-2.53553 -4.1755,-7.54647 -5.4312,-11.13259 l -2.2856,-6.51902 4.1205,-8.78904 c 4.5391,-9.68592 6.4805,-12.33959 9.0309,-12.33959 z m 51.7906,109.99633 c 1.0099,-0.0797 1.7139,0.2062 2.1167,0.85779 1.0224,1.65391 3.5378,20.63036 2.9411,22.18551 -0.3198,0.83307 -1.9493,1.9936 -3.6212,2.57637 -1.6717,0.58278 -6.0623,1.05688 -9.7569,1.05688 -7.7013,0 -7.7224,-0.0191 -14.0981,-12.3273 -3.8689,-7.46925 -3.6345,-9.45997 1.1183,-9.45997 4.2714,0 14.3837,-2.06865 17.3514,-3.55052 1.6251,-0.81167 2.9389,-1.25904 3.9487,-1.33876 z"
         id="path4159"
         inkscape:connector-curvature="0" />
    </g>
  </g>
</svg>
