<?xml version="1.0" encoding="UTF-8" standalone="no"?>
<!-- Created with Inkscape (http://www.inkscape.org/) -->

<svg
   xmlns:dc="http://purl.org/dc/elements/1.1/"
   xmlns:cc="http://creativecommons.org/ns#"
   xmlns:rdf="http://www.w3.org/1999/02/22-rdf-syntax-ns#"
   xmlns:svg="http://www.w3.org/2000/svg"
   xmlns="http://www.w3.org/2000/svg"
   xmlns:sodipodi="http://sodipodi.sourceforge.net/DTD/sodipodi-0.dtd"
   xmlns:inkscape="http://www.inkscape.org/namespaces/inkscape"
   width="210mm"
   height="297mm"
   viewBox="0 0 744.09448819 1052.3622047"
   id="svg2"
   version="1.1"
   inkscape:version="0.91 r13725"
   sodipodi:docname="Baseballdude4.svg">
  <defs
     id="defs4" />
  <sodipodi:namedview
     id="base"
     pagecolor="#ffffff"
     bordercolor="#666666"
     borderopacity="1.0"
     inkscape:pageopacity="0.0"
     inkscape:pageshadow="2"
     inkscape:zoom="0.061871843"
     inkscape:cx="-3963.163"
     inkscape:cy="-668.47608"
     inkscape:document-units="px"
     inkscape:current-layer="g4147"
     showgrid="false"
     inkscape:window-width="1920"
     inkscape:window-height="1027"
     inkscape:window-x="-8"
     inkscape:window-y="-8"
     inkscape:window-maximized="1" />
  <metadata
     id="metadata7">
    <rdf:RDF>
      <cc:Work
         rdf:about="">
        <dc:format>image/svg+xml</dc:format>
        <dc:type
           rdf:resource="http://purl.org/dc/dcmitype/StillImage" />
        <dc:title></dc:title>
      </cc:Work>
    </rdf:RDF>
  </metadata>
  <g
     inkscape:label="Layer 1"
     inkscape:groupmode="layer"
     id="layer1">
    <g
       id="g4147"
       transform="translate(-866.71088,127.27922)">
      <path
         style="fill:#0c0d0f"
         d="m 1194.7923,-23.439774 c -8.2722,0 -15.1702,3.257835 -20.5831,9.723399 -3.874,4.6277002 -4.3896,5.9148602 -6.0043,14.9588602 -2.3839,13.3517198 -5.8141,18.5581398 -14.9864,22.7522698 -3.5542,1.62511 -7.7271,3.26279 -9.2733,3.63938 -1.6739,0.40781 -3.9978,2.3244 -5.747,4.73917 -2.6928,3.717422 -2.7985,4.153902 -1.2651,5.275262 2.4089,1.76156 9.6603,2.64488 15.795,1.92385 2.9143,-0.34255 5.4989,-0.28691 5.7442,0.1224 0.2465,0.40945 0.085,2.97137 -0.3584,5.69495 -0.5028,3.08681 -0.4108,6.1005 0.2464,7.99865 0.8568,2.48034 0.6517,4.10995 -1.0966,8.78293 -2.0395,5.45051 -2.0901,6.35927 -1.0356,18.24594 0.6106,6.88123 1.9225,16.07859 2.9165,20.436273 0.994,4.35773 2.1045,9.70427 2.469,11.88316 0.9171,5.48271 2.3182,6.70013 12.0242,10.45248 4.6637,1.8031 8.7089,3.87384 8.9882,4.60131 0.6344,1.65389 -4.1593,17.34174 -10.7865,35.29406 l -5.0577,13.70282 0.6188,10.0665 c 0.5657,9.21312 0.4004,10.6543 -1.9268,16.99912 -6.6428,18.11097 -7.5297,21.07592 -8.2134,27.47303 -0.7927,7.41867 -2.0129,9.05999 -6.0441,8.11818 -8.5391,-1.99505 -14.3544,-10.97481 -18.8798,-29.15492 -2.8615,-11.49475 -3.3336,-12.57396 -6.6203,-15.1028 -2.6864,-2.0669 -4.6443,-2.72342 -8.1149,-2.72342 -4.3033,0 -4.9297,0.36698 -10.6335,6.19125 -8.5236,8.70427 -9.8759,11.895 -10.4217,24.59034 -0.3475,8.06703 -0.9479,11.50143 -2.6041,14.92208 -2.6738,5.52353 -2.7182,8.76716 -0.167,12.00871 2.3916,3.0407 2.4475,4.3137 0.4075,9.19652 -1.7158,4.10633 -1.4959,7.6818 0.9986,16.2853 3.2177,11.09661 13.8854,22.42579 27.7424,29.46121 6.2933,3.19498 8.25,3.66209 19.3795,4.62581 l 12.3796,1.0722 0.5052,10.39738 c 0.451,9.27351 1.0668,12.00725 5.6769,25.25512 2.8432,8.17069 5.6597,18.20026 6.2615,22.28661 0.9664,6.56241 0.8558,8.37405 -0.9682,15.51638 -1.1353,4.44749 -2.0647,8.79172 -2.0647,9.65601 0,0.86431 2.1466,3.80035 4.7698,6.5221 3.6819,3.81983 5.4614,4.94748 7.7996,4.94748 5.7002,0 9.3647,1.21077 10.1799,3.36061 0.4354,1.14812 1.5501,4.70231 2.4784,7.90062 1.5977,5.50648 1.5964,6.05987 -0.052,10.40044 -0.9575,2.52116 -3.2043,6.81296 -4.9934,9.53654 l -3.2535,4.95053 0.8209,10.89365 0.8212,10.89365 -7.2331,17.82928 c -3.9778,9.80484 -8.5975,20.86456 -10.2656,24.57813 -1.6678,3.7135 -4.1985,10.57565 -5.6244,15.24984 -2.3507,7.70612 -2.5112,9.25361 -1.7248,16.59166 0.4776,4.45089 0.5392,12.51799 0.1369,17.92731 -0.4013,5.4093 -0.4811,20.75383 -0.1779,34.09932 0.431,18.95277 0.2245,26.37305 -0.9469,33.89402 -2.169,13.9459 -0.9849,21.31889 5.3275,33.18945 6.8023,12.79212 7.1522,18.7558 3.0512,52.25946 -3.7815,30.89041 -6.2845,40.10979 -10.8877,40.10979 -2.4409,0 -13.3711,7.44454 -17.002,11.57987 -2.6432,3.01044 -2.9381,4.02252 -2.9381,10.10936 0,8.49378 -1.6895,10.89001 -9.7569,13.83149 -6.3248,2.30614 -12.4587,7.94134 -13.6016,12.49585 -0.8968,3.57352 0.2683,8.67063 2.8579,12.51418 2.5137,3.72942 6.9288,6.87455 17.0332,12.13437 6.6742,3.47429 7.2297,3.59083 14.8576,3.11553 4.3579,-0.27164 9.4779,-0.94231 11.3807,-1.4919 5.3069,-1.53281 22.7908,-1.20195 30.4017,0.57591 9.7895,2.28666 26.0603,1.57607 31.7252,-1.38467 5.6755,-2.96647 12.1586,-11.77478 12.1588,-16.52118 0,-4.789 -2.3883,-10.18921 -6.3568,-14.37068 -1.8094,-1.9065 -5.1972,-6.81135 -7.5298,-10.89671 -2.3328,-4.08536 -5.9993,-9.96015 -8.1491,-13.05644 l -3.9088,-5.63063 0.3464,-9.39254 c 0.1917,-5.16614 0.6624,-9.70983 1.0507,-10.09713 0.388,-0.38731 4.4003,0.44963 8.9146,1.85954 14.6246,4.56754 21.2317,4.93667 39.8952,2.22404 14.7024,-2.13691 17.0439,-2.75216 23.0403,-6.04724 3.6714,-2.01736 8.0879,-4.90826 9.8154,-6.42409 3.3171,-2.91087 5.7791,-3.60165 24.8966,-6.99078 6.3672,-1.12882 14.6964,-3.11323 18.5094,-4.40834 6.0013,-2.03834 7.7656,-3.2402 13.1238,-8.95142 l 6.1911,-6.59867 0,-6.83454 c 0,-6.35495 -0.2245,-7.07055 -3.2196,-10.22276 -1.7703,-1.86451 -8.79,-6.78574 -15.5989,-10.93346 l -12.3795,-7.53914 -6.6353,0.64025 c -11.0614,1.07068 -13.913,0.12843 -21.6222,-7.14399 -5.3209,-5.01959 -7.1492,-7.50747 -8.4702,-11.53387 -2.515,-7.66612 -12.2683,-21.09849 -19.9097,-27.41792 -10.7672,-8.90481 -15.167,-13.05512 -15.167,-14.3155 0,-0.65405 3.807,-6.27014 8.4584,-12.47746 11,-14.6803 19.3256,-29.11478 22.7002,-39.35617 1.7532,-5.32124 3.4537,-8.68119 4.8371,-9.55493 1.1736,-0.7414 10.2631,-3.61301 20.1972,-6.38115 26.52,-7.38991 38.5346,-14.06879 56.9221,-31.63629 7.7812,-7.43409 9.6741,-10.49551 18.1725,-29.39077 0.735,-1.63414 2.7186,-9.56253 4.4083,-17.62099 l 3.0725,-14.65249 -1.602,-8.12732 c -3.5477,-17.99585 -7.5433,-26.60786 -19.0396,-41.03498 -5.3749,-6.74564 -11.1632,-16.87151 -11.1632,-19.52951 0,-1.35269 -1.3376,-3.98388 -2.9715,-5.84506 -3.3409,-3.80496 -3.695,-5.74478 -1.4001,-7.64944 1.1403,-0.95077 1.4573,-2.52164 1.155,-5.81444 -0.2272,-2.48213 -0.041,-7.33759 0.4198,-10.78948 0.988,-7.44643 -0.7212,-12.31936 -6.948,-19.81443 -5.1547,-6.20458 -5.4587,-6.91305 -8.4795,-19.65204 -1.4449,-6.09252 -3.5884,-13.22128 -4.7606,-15.84418 -1.7624,-3.94434 -2.2011,-7.16705 -2.5365,-18.63501 -0.471,-16.09283 0.5876,-20.96735 5.0149,-23.08924 2.4189,-1.15947 3.5388,-1.06774 8.8595,0.72911 11.3899,3.84645 40.4228,2.24949 48.2923,-2.65603 1.3614,-0.8489 6.323,-5.29062 11.0251,-9.87045 10.7178,-10.43896 14.8725,-18.42356 15.3021,-29.40302 0.4559,-11.65293 -2.25,-18.18844 -11.5553,-27.90497 -7.6408,-7.97828 -9.1917,-10.50748 -13.1821,-21.51464 l -2.0863,-5.75317 -6.9323,-2.48752 c -3.8131,-1.36717 -9.924,-3.29642 -13.5806,-4.28884 -6.16,-1.6719 -7.4582,-2.55986 -17.6821,-12.06387 -11.5885,-10.77238 -34.2835,-37.17613 -35.0765,-40.811333 -0.2547,-1.16939 -1.112,-13.87657 -1.9056,-28.23583 l -1.443,-26.10674 -3.5931,-5.41315 c -3.8653,-5.821022 -5.7626,-6.949092 -16.4848,-9.806102 l -6.5556,-1.74618 -7.7965,2.92868 c -6.1372,2.3065 -7.8631,3.39078 -8.109,5.094512 -0.3809,2.63952 -7.6106,8.59465 -9.224,7.59739 -0.8387,-0.51816 -0.9797,-4.34492 -0.5175,-13.978542 0.6183,-12.89704 0.5632,-13.40455 -1.9088,-18.28271 -1.3982,-2.7594798 -6.2692,-8.8678098 -10.8232,-13.5741598 -8.0282,-8.2966402 -8.6032,-8.6811802 -18.9902,-12.6826902 -12.4154,-4.782949 -27.5384,-8.25295 -35.9683,-8.25295 z m 67.8865,97.365751 c 0.8814,-0.0991 1.4395,0.71229 1.4395,2.58861 0,0.98514 1.894,4.68186 4.2092,8.21311 2.3152,3.53128 4.9315,7.75837 5.8146,9.39562 1.5985,2.96426 9.4447,9.906913 17.7832,15.733873 3.6122,2.52405 6.176,6.14775 14.6035,20.64156 5.6224,9.66928 9.9811,18.20828 9.6865,18.97502 -0.2941,0.76676 -1.2481,1.39387 -2.1227,1.39387 -3.069,0 -13.693,-11.53053 -23.9132,-25.95356 -9.1028,-12.84549 -11.2197,-15.19656 -17.9429,-19.94616 -14.0657,-9.936523 -18.7623,-17.060173 -15.5868,-23.637573 2.1917,-4.53985 4.5595,-7.23912 6.0291,-7.40437 z m -34.9571,610.380773 c 1.3187,-0.11008 5.5605,0.91689 10.7711,2.64069 5.6515,1.86963 12.5047,4.04243 15.2284,4.82802 4.2064,1.21328 4.9505,1.79226 4.9505,3.85382 0,2.19415 -0.485,2.47484 -5.0579,2.92251 -4.6426,0.4546 -5.4803,0.9565 -10.1952,6.12694 -5.7336,6.28779 -15.3985,13.67773 -24.3634,18.62885 -3.2684,1.80496 -6.6471,3.88289 -7.5088,4.6166 -2.1063,1.79436 -2.8908,0.76892 -1.8779,-2.45686 1.4206,-4.52328 16.7476,-40.11862 17.6731,-41.04414 0.063,-0.0635 0.1917,-0.1005 0.3801,-0.11638 z"
         id="path4169"
         inkscape:connector-curvature="0" />
      <path
         style="fill:#0c0d0f"
         d="m 4366.1207,136.32321 c 1.9099,-2.11035 1.4414,-4.98881 -0.8122,-4.98881 -1.436,0 -4.6016,4.06411 -4.6016,5.90746 0,1.73716 3.5564,1.13366 5.4138,-0.91865 z"
         id="path4149"
         inkscape:connector-curvature="0" />
    </g>
  </g>
</svg>
